<svg width="239" height="221" viewBox="0 0 239 221" fill="none" xmlns="http://www.w3.org/2000/svg">
<path d="M211.12 151.28L191.603 141.11L206.868 137.347C207.907 137.088 208.88 136.64 209.733 136.029C210.586 135.418 211.301 134.656 211.838 133.787C212.375 132.918 212.723 131.959 212.861 130.965C213 129.97 212.927 128.96 212.647 127.992C212.382 127.016 211.91 126.099 211.258 125.296C210.606 124.494 209.788 123.821 208.853 123.319C207.918 122.816 206.884 122.494 205.812 122.37C204.741 122.247 203.654 122.326 202.616 122.602L171.649 130.33L135.667 110.602L171.54 91.2796L202.616 99.0085H204.796C206.648 98.8643 208.392 98.1361 209.741 96.944C211.09 95.7519 211.963 94.1668 212.217 92.4499C212.471 90.733 212.09 88.9867 211.138 87.4985C210.185 86.0103 208.718 84.8691 206.977 84.2627L191.603 80.0932L211.12 69.9237C212.114 69.4509 212.994 68.7934 213.705 67.9917C214.417 67.19 214.945 66.261 215.257 65.2618C215.569 64.2627 215.658 63.2146 215.519 62.1821C215.381 61.1495 215.017 60.1543 214.451 59.2577C213.885 58.3611 213.127 57.5821 212.226 56.9686C211.325 56.3551 210.299 55.9201 209.21 55.6903C208.122 55.4606 206.995 55.441 205.898 55.6327C204.802 55.8244 203.759 56.2234 202.834 56.8051L183.425 66.9746L187.568 52.6356C187.991 51.6034 188.168 50.4981 188.087 49.3959C188.006 48.2937 187.67 47.2211 187.101 46.2521C186.531 45.2832 185.744 44.4412 184.791 43.7842C183.839 43.1272 182.745 42.6711 181.585 42.4472C180.425 42.2234 179.227 42.2373 178.073 42.4879C176.92 42.7384 175.838 43.2198 174.904 43.8986C173.969 44.5773 173.204 45.4374 172.661 46.4192C172.118 47.4009 171.81 48.481 171.758 49.5847L163.362 78.0593L127.816 97.178V58.3305L150.605 37.0763C152.136 35.6462 152.997 33.7076 152.997 31.6864C152.997 29.6652 152.136 27.7267 150.605 26.2966C149.072 24.8683 146.993 24.066 144.826 24.066C142.659 24.066 140.58 24.8683 139.047 26.2966L128.143 36.4661V16.1271C128.143 14.1043 127.282 12.1643 125.748 10.7339C124.215 9.30357 122.134 8.5 119.966 8.5C117.797 8.5 115.717 9.30357 114.183 10.7339C112.649 12.1643 111.788 14.1043 111.788 16.1271V36.4661L100.884 26.2966C99.3508 24.8683 97.2723 24.066 95.1052 24.066C92.9381 24.066 90.8596 24.8683 89.3262 26.2966C87.7948 27.7267 86.9346 29.6652 86.9346 31.6864C86.9346 33.7076 87.7948 35.6462 89.3262 37.0763L112.115 58.3305V97.5847L75.3695 78.0593L66.9737 48.9746C66.7076 48.0097 66.2388 47.1038 65.5945 46.3092C64.9501 45.5147 64.143 44.8473 63.22 44.3459C62.297 43.8446 61.2764 43.5191 60.2175 43.3884C59.1586 43.2578 58.0824 43.3245 57.0513 43.5847C54.9492 44.1106 53.1533 45.3867 52.0516 47.1373C50.9499 48.8879 50.6308 50.9725 51.1633 52.9407L55.3067 67.2797L36.6614 57.1102C35.7674 56.3517 34.7043 55.7875 33.5485 55.458C32.3928 55.1286 31.1731 55.0422 29.9772 55.2051C28.7814 55.3679 27.6391 55.7759 26.6325 56.3997C25.626 57.0235 24.7802 57.8477 24.156 58.8128C23.5318 59.778 23.1447 60.8602 23.0226 61.9816C22.9005 63.103 23.0464 64.2356 23.4498 65.2981C23.8532 66.3606 24.5041 67.3265 25.3557 68.1263C26.2072 68.9262 27.2383 69.54 28.3746 69.9237L47.1289 80.0932L31.8638 83.8559C29.8929 84.2864 28.1633 85.3833 27.0095 86.9345C25.8556 88.4856 25.3596 90.3808 25.6174 92.2533C25.8751 94.1258 26.8683 95.8426 28.4048 97.0716C29.9413 98.3007 31.9119 98.9545 33.9355 98.9068C34.6585 99.0055 35.3932 99.0055 36.1162 98.9068L67.1917 91.178L103.065 110.602L67.1917 129.924L36.1162 122.195C35.0781 121.934 33.9951 121.867 32.9292 121.997C31.8632 122.127 30.8352 122.452 29.9037 122.952C28.0224 123.963 26.6487 125.629 26.0848 127.585C25.5209 129.54 25.813 131.624 26.8967 133.379C27.9805 135.134 29.7672 136.415 31.8638 136.941L47.1289 140.703L28.3746 151.28C26.5758 152.296 25.2663 153.92 24.718 155.814C24.1697 157.708 24.4249 159.726 25.4306 161.449C25.9507 162.3 26.646 163.046 27.4765 163.644C28.3071 164.243 29.2564 164.683 30.2698 164.938C31.2833 165.193 32.3409 165.259 33.3817 165.131C34.4225 165.004 35.4259 164.686 36.3343 164.195L54.9796 154.025L50.8362 168.364C50.3037 170.333 50.6228 172.417 51.7245 174.168C52.8262 175.918 54.6221 177.194 56.7242 177.72H58.7959C60.5985 177.725 62.351 177.167 63.7739 176.135C65.1968 175.103 66.2081 173.656 66.6465 172.025L75.0424 143.042L111.243 123.517V162.059L88.781 183.314C87.2496 184.744 86.3894 186.682 86.3894 188.703C86.3894 190.725 87.2496 192.663 88.781 194.093C89.5328 194.813 90.4314 195.385 91.424 195.775C92.4165 196.166 93.4828 196.367 94.56 196.367C95.6372 196.367 96.7035 196.166 97.696 195.775C98.6886 195.385 99.5872 194.813 100.339 194.093L111.243 183.924V204.873C111.243 206.896 112.104 208.836 113.638 210.266C115.171 211.696 117.252 212.5 119.42 212.5C121.589 212.5 123.669 211.696 125.203 210.266C126.737 208.836 127.598 206.896 127.598 204.873V183.72L138.502 193.89C139.245 194.617 140.143 195.192 141.138 195.577C142.133 195.962 143.204 196.15 144.281 196.127C145.355 196.132 146.42 195.936 147.412 195.552C148.405 195.168 149.305 194.603 150.06 193.89C151.591 192.46 152.451 190.521 152.451 188.5C152.451 186.479 151.591 184.54 150.06 183.11L127.271 161.958V124.025L163.362 143.144L171.758 172.229C172.234 173.832 173.258 175.246 174.676 176.256C176.093 177.266 177.825 177.816 179.609 177.822H181.79C182.828 177.563 183.802 177.115 184.655 176.504C185.508 175.893 186.223 175.131 186.76 174.262C187.296 173.393 187.644 172.434 187.783 171.439C187.922 170.445 187.849 169.434 187.568 168.466L183.425 154.127L202.834 164.297C203.75 164.958 204.806 165.431 205.933 165.683C207.06 165.936 208.231 165.962 209.37 165.76C210.508 165.558 211.587 165.132 212.536 164.512C213.485 163.891 214.282 163.09 214.873 162.161C215.465 161.231 215.838 160.195 215.968 159.122C216.098 158.048 215.981 156.96 215.626 155.931C215.272 154.902 214.686 153.956 213.91 153.154C213.133 152.352 212.182 151.713 211.12 151.28Z" fill="#30B0C7"/>
</svg>
