<svg width="167" height="132" viewBox="0 0 167 132" fill="none" xmlns="http://www.w3.org/2000/svg">
<path d="M73.8636 0.106979C74.8147 0.1006 75.7659 0.0942197 76.7459 0.0876465C77.7761 0.0865337 78.8063 0.0854208 79.8677 0.0842743C81.4509 0.0792817 81.4509 0.0792817 83.0661 0.0741882C85.3013 0.0691191 87.5366 0.0667799 89.7718 0.0669403C93.1978 0.0647543 96.6234 0.0465996 100.049 0.0276337C102.218 0.0246997 104.387 0.0227149 106.555 0.0217743C108.098 0.010996 108.098 0.010996 109.671 0C111.102 0.00461494 111.102 0.00461494 112.563 0.00932312C113.403 0.0078981 114.243 0.00647308 115.108 0.00500488C117.278 0.252243 117.278 0.252243 120.278 2.25224C120.65 4.0999 120.65 4.0999 120.641 6.31474C120.64 7.5097 120.64 7.5097 120.639 8.72881C120.623 9.56154 120.607 10.3943 120.59 11.2522C120.594 12.085 120.597 12.9177 120.6 13.7757C120.545 19.9852 120.545 19.9852 118.278 22.2522C115.02 22.4476 115.02 22.4476 111.153 22.3772C109.231 22.3502 109.231 22.3502 107.27 22.3226C105.789 22.2878 105.789 22.2878 104.278 22.2522C104.278 24.8922 104.278 27.5322 104.278 30.2522C105.216 30.2313 106.154 30.2103 107.12 30.1888C110.62 30.1203 114.12 30.0703 117.62 30.0325C119.131 30.0125 120.642 29.9852 122.153 29.9505C124.333 29.9016 126.512 29.8792 128.692 29.8616C130.001 29.8407 131.31 29.8197 132.659 29.7981C136.874 30.327 139.006 31.5968 142.278 34.2522C143.661 37.0184 143.39 39.2624 143.376 42.3538C143.372 43.5655 143.369 44.7772 143.366 46.0257C143.357 47.2967 143.349 48.5677 143.34 49.8772C143.336 51.156 143.331 52.4347 143.327 53.7522C143.315 56.919 143.298 60.0856 143.278 63.2522C143.938 63.2522 144.598 63.2522 145.278 63.2522C145.243 62.1926 145.208 61.133 145.172 60.0413C145.144 58.6533 145.117 57.2653 145.09 55.8772C145.065 55.1786 145.04 54.4799 145.014 53.7601C144.985 51.7288 144.985 51.7288 145.278 48.2522C148.901 45.8366 151.594 45.9544 155.778 46.0022C156.455 45.9945 157.131 45.9868 157.829 45.9788C161.527 45.9934 163.124 46.1496 166.278 48.2522C166.659 50.6812 166.659 50.6812 166.666 53.7718C166.676 54.9264 166.685 56.081 166.695 57.2706C166.686 59.1487 166.686 59.1487 166.676 61.0647C166.681 62.9844 166.681 62.9844 166.685 64.9429C166.689 67.6532 166.683 70.3633 166.669 73.0735C166.652 76.5509 166.662 80.0275 166.68 83.5048C166.693 86.8165 166.684 90.128 166.676 93.4397C166.682 94.6918 166.688 95.9439 166.695 97.2339C166.681 98.9658 166.681 98.9658 166.666 100.733C166.664 101.753 166.661 102.772 166.659 103.823C166.533 104.625 166.407 105.426 166.278 106.252C162.654 108.668 159.962 108.55 155.778 108.502C155.101 108.51 154.424 108.518 153.727 108.526C150.029 108.511 148.432 108.355 145.278 106.252C145.057 103.625 144.996 101.243 145.09 98.6272C145.104 97.9208 145.117 97.2144 145.131 96.4866C145.167 94.7415 145.221 92.9968 145.278 91.2522C144.618 91.2522 143.958 91.2522 143.278 91.2522C143.4 92.0876 143.4 92.0876 143.524 92.9397C143.805 96.3328 143.986 99.1476 142.102 102.088C141.559 102.67 141.017 103.251 140.458 103.85C139.822 104.536 139.186 105.222 138.531 105.929C134.536 110.049 130.527 114.151 126.46 118.2C124.947 119.708 123.439 121.221 121.932 122.735C120.968 123.698 120.004 124.661 119.04 125.623C118.173 126.489 117.306 127.354 116.413 128.246C113.388 131.088 111.782 131.381 107.74 131.429C106.798 131.442 105.857 131.455 104.887 131.468C103.356 131.479 103.356 131.479 101.794 131.491C100.745 131.499 99.6968 131.507 98.6167 131.515C96.3941 131.529 94.1714 131.54 91.9488 131.547C88.5555 131.565 85.1631 131.608 81.7701 131.653C79.6112 131.663 77.4524 131.671 75.2935 131.678C74.2808 131.696 73.2681 131.713 72.2247 131.731C64.5986 131.708 61.3001 130.26 55.8638 124.85C55.1342 124.013 54.4046 123.177 53.6529 122.315C52.9181 121.481 52.1834 120.647 51.4263 119.787C49.2779 117.252 49.2779 117.252 47.3404 114.471C45.4707 112.037 45.4707 112.037 42.692 111.686C41.3114 111.688 41.3114 111.688 39.9029 111.69C34.9358 111.451 32.0888 110.672 28.2779 107.252C26.0467 103.848 26.0657 101.012 26.1529 97.0022C26.1709 95.9246 26.189 94.8469 26.2076 93.7366C26.2308 92.9168 26.254 92.0969 26.2779 91.2522C24.6279 91.2522 22.9779 91.2522 21.2779 91.2522C21.3011 92.5284 21.3243 93.8046 21.3482 95.1194C21.367 96.7887 21.3852 98.458 21.4029 100.127C21.4197 100.969 21.4364 101.811 21.4537 102.678C21.4601 103.484 21.4666 104.289 21.4732 105.119C21.4837 105.863 21.4942 106.607 21.5049 107.373C21.2779 109.252 21.2779 109.252 19.2779 111.252C16.4045 111.451 13.6493 111.531 10.7779 111.502C9.60033 111.514 9.60033 111.514 8.39899 111.526C2.5312 111.506 2.5312 111.506 0.277893 109.252C0.0239258 106.861 0.0239258 106.861 0.019104 103.825C0.0127997 102.69 0.00649537 101.555 0 100.386C0.00404847 99.1562 0.00809693 97.926 0.0122681 96.6585C0.0103546 95.4009 0.00844117 94.1433 0.00646973 92.8476C0.00510658 90.1843 0.00781301 87.5214 0.0171509 84.8582C0.0285455 81.4415 0.0219894 78.0252 0.0100098 74.6085C0.00105234 71.3543 0.00731679 68.1002 0.0122681 64.846C0.00821961 63.6158 0.00417115 62.3856 0 61.1181C0.00630433 59.9835 0.0126086 58.8489 0.019104 57.68C0.0206952 56.6779 0.0222864 55.6757 0.0239258 54.6432C0.277893 52.2522 0.277893 52.2522 2.27789 50.2522C5.15131 50.0537 7.90651 49.974 10.7779 50.0022C11.9555 49.9906 11.9555 49.9906 13.1568 49.9788C19.0246 49.9989 19.0246 49.9989 21.2779 52.2522C21.5049 54.1316 21.5049 54.1316 21.4732 56.3851C21.4668 57.1907 21.4603 57.9964 21.4537 58.8265C21.4369 59.6682 21.4202 60.51 21.4029 61.3772C21.3939 62.2267 21.3848 63.0762 21.3755 63.9515C21.3519 66.0518 21.3161 68.1521 21.2779 70.2522C22.9279 70.2522 24.5779 70.2522 26.2779 70.2522C26.2257 69.0399 26.2257 69.0399 26.1724 67.803C26.1454 66.7344 26.1183 65.6658 26.0904 64.5647C26.0382 62.9811 26.0382 62.9811 25.9849 61.3655C26.4006 56.9484 27.9918 54.5219 31.1099 51.4436C33.8992 49.9108 35.8032 50.0864 38.9654 50.1897C42.8426 49.9633 44.7392 49.6765 47.817 47.2522C50.1081 44.6698 52.2069 42.0136 54.2779 39.2522C55.5766 37.7196 56.8879 36.1975 58.2154 34.6897C58.7607 34.0491 59.3059 33.4084 59.8677 32.7483C61.6186 30.8907 62.6921 30.286 65.2491 30.1387C66.4274 30.1466 66.4274 30.1466 67.6295 30.1546C68.9056 30.1594 68.9056 30.1594 70.2076 30.1644C71.097 30.1727 71.9865 30.1811 72.9029 30.1897C73.8001 30.1943 74.6973 30.1988 75.6216 30.2034C77.8405 30.2152 80.0591 30.2317 82.2779 30.2522C82.2779 27.6122 82.2779 24.9722 82.2779 22.2522C81.3021 22.3103 80.3263 22.3683 79.3209 22.428C78.0486 22.4731 76.7763 22.5183 75.4654 22.5647C73.5685 22.6518 73.5685 22.6518 71.6334 22.7405C68.2779 22.2522 68.2779 22.2522 66.3482 20.1116C65.1597 16.9365 64.9098 14.5729 64.9654 11.1897C64.9693 10.1675 64.9731 9.14529 64.9771 8.09209C65.2749 5.28043 65.7409 3.6039 67.2779 1.25224C69.677 0.0526981 71.1849 0.119146 73.8636 0.106979ZM74.2779 9.25224C74.2779 10.5722 74.2779 11.8922 74.2779 13.2522C81.7029 14.2422 81.7029 14.2422 89.2779 15.2522C90.0433 20.6101 90.3708 24.9574 90.2779 30.2522C91.9279 30.2522 93.5779 30.2522 95.2779 30.2522C95.3153 29.3486 95.3527 28.445 95.3912 27.514C95.4569 26.3345 95.5227 25.155 95.5904 23.9397C95.6484 22.768 95.7064 21.5962 95.7662 20.389C96.2779 17.2522 96.2779 17.2522 97.4029 15.346C100.255 13.6825 102.703 13.9678 105.965 14.0647C107.735 14.1053 107.735 14.1053 109.54 14.1468C110.895 14.199 110.895 14.199 112.278 14.2522C112.278 12.6022 112.278 10.9522 112.278 9.25224C99.7379 9.25224 87.1979 9.25224 74.2779 9.25224ZM57.245 46.1449C56.2116 47.8207 55.2438 49.5366 54.2779 51.2522C50.1108 57.0737 50.1108 57.0737 46.0162 57.9515C44.8857 57.9476 43.7552 57.9437 42.5904 57.9397C39.2331 57.893 39.2331 57.893 36.2779 58.2522C33.744 62.0531 34.007 65.0978 34.0474 69.4983C34.0479 70.3059 34.0483 71.1134 34.0488 71.9454C34.0518 73.6526 34.0597 75.3598 34.0721 77.0669C34.0903 79.6763 34.0926 82.2854 34.0923 84.8948C34.0973 86.5543 34.1031 88.2138 34.1099 89.8733C34.111 90.6526 34.1121 91.4319 34.1133 92.2348C34.1439 95.7408 34.3381 98.8787 35.2779 102.252C36.585 102.243 36.585 102.243 37.9185 102.233C45.1728 102.649 49.3402 103.549 54.3589 108.798C57.4739 112.362 60.4237 115.985 63.0706 119.912C65.0775 122.466 65.0775 122.466 68.0042 122.912C69.0317 122.927 70.0591 122.943 71.1177 122.959C72.2644 122.988 73.411 123.017 74.5923 123.047C75.788 123.053 76.9836 123.059 78.2154 123.065C79.3762 123.09 80.537 123.115 81.733 123.141C85.2483 123.209 88.762 123.231 92.2779 123.252C93.455 123.279 94.632 123.305 95.8448 123.332C97.5461 123.36 97.5461 123.36 99.2818 123.389C100.797 123.421 100.797 123.421 102.343 123.454C108.724 123.015 112.585 120.596 117.079 116.229C117.601 115.727 118.122 115.226 118.66 114.709C119.755 113.647 120.845 112.58 121.93 111.507C123.578 109.889 125.263 108.316 126.952 106.741C132.04 101.826 135.877 97.9503 136.446 90.5257C136.403 88.7675 136.351 87.0094 136.278 85.2522C137.278 84.2522 137.278 84.2522 140.403 84.1194C141.682 84.122 142.96 84.1246 144.278 84.1272C145.557 84.1247 146.835 84.1221 148.153 84.1194C151.278 84.2522 151.278 84.2522 152.278 85.2522C152.513 87.6021 152.692 89.9578 152.84 92.3147C152.924 93.6051 153.008 94.8954 153.094 96.2249C153.155 97.2239 153.215 98.2229 153.278 99.2522C154.928 99.2522 156.578 99.2522 158.278 99.2522C158.278 84.7322 158.278 70.2122 158.278 55.2522C156.628 55.2522 154.978 55.2522 153.278 55.2522C153.217 56.2513 153.157 57.2503 153.094 58.2796C152.969 60.2151 152.969 60.2151 152.84 62.1897C152.719 64.1214 152.719 64.1214 152.594 66.0921C152.278 69.2522 152.278 69.2522 151.278 70.2522C148.946 70.3513 146.612 70.3819 144.278 70.3772C142.999 70.3798 141.72 70.3824 140.403 70.3851C137.278 70.2522 137.278 70.2522 136.278 69.2522C136.119 67.0354 136.027 64.8137 135.961 62.5921C135.941 61.9276 135.92 61.2632 135.899 60.5786C135.833 58.4491 135.774 56.3194 135.715 54.1897C135.672 52.749 135.629 51.3082 135.585 49.8675C135.477 46.3292 135.376 42.7908 135.278 39.2522C128.131 35.6789 115.621 37.6106 107.528 37.4966C103.583 37.4401 99.6419 37.359 95.6988 37.2166C74.1364 35.3458 74.1364 35.3458 57.245 46.1449ZM8.27789 58.2522C8.27789 73.1022 8.27789 87.9522 8.27789 103.252C10.7529 102.757 10.7529 102.757 13.2779 102.252C13.3385 101.037 13.3991 99.8211 13.4615 98.5686C13.5459 96.984 13.6305 95.3994 13.7154 93.8147C13.7547 93.0123 13.794 92.2099 13.8345 91.3831C14.1646 85.3655 14.1646 85.3655 15.2779 84.2522C17.1268 84.0186 18.9828 83.8392 20.8404 83.6897C21.8523 83.606 22.8642 83.5222 23.9068 83.4358C25.0805 83.345 25.0805 83.345 26.2779 83.2522C26.2779 81.6022 26.2779 79.9522 26.2779 78.2522C25.1042 78.1614 25.1042 78.1614 23.9068 78.0686C22.8949 77.9849 21.883 77.9011 20.8404 77.8147C19.3264 77.6929 19.3264 77.6929 17.7818 77.5686C15.2779 77.2522 15.2779 77.2522 14.2779 76.2522C14.1221 74.9121 14.0275 73.5647 13.9615 72.2171C13.9196 71.4082 13.8777 70.5993 13.8345 69.7659C13.7952 68.9158 13.7559 68.0656 13.7154 67.1897C13.6722 66.3357 13.629 65.4817 13.5845 64.6019C13.4781 62.4855 13.3775 60.3689 13.2779 58.2522C11.6279 58.2522 9.97789 58.2522 8.27789 58.2522Z" fill="#EA4335"/>
<path d="M91.0438 50.1387C91.7926 50.144 92.5415 50.1492 93.313 50.1546C94.1219 50.1578 94.9308 50.161 95.7642 50.1644C96.6144 50.1727 97.4645 50.1811 98.3404 50.1898C99.1944 50.1943 100.048 50.1988 100.928 50.2034C103.045 50.2153 105.161 50.2332 107.278 50.2523C105.929 53.8852 104.293 57.0516 102.239 60.3343C101.659 61.2656 101.079 62.197 100.481 63.1566C99.8777 64.1163 99.2745 65.076 98.6529 66.0648C98.0419 67.0438 97.4309 68.0228 96.8013 69.0316C95.2971 71.4407 93.788 73.8468 92.2779 76.2523C97.2279 76.2523 102.178 76.2523 107.278 76.2523C106.219 80.4875 104.502 82.8308 101.84 86.1273C98.0751 90.9015 94.4268 95.7343 90.9029 100.69C90.2968 101.539 90.2968 101.539 89.6785 102.406C87.768 105.099 85.9324 107.803 84.1763 110.6C82.2779 113.252 82.2779 113.252 79.2779 114.252C80.6386 107.497 82.565 101.167 84.9029 94.6898C85.2277 93.7765 85.5526 92.8632 85.8873 91.9222C86.6794 89.6972 87.478 87.4745 88.2779 85.2523C83.3279 85.2523 78.3779 85.2523 73.2779 85.2523C73.2779 80.8086 74.5545 78.1671 76.524 74.3343C76.8546 73.6764 77.1851 73.0186 77.5257 72.3408C78.224 70.9547 78.926 69.5705 79.6317 68.188C80.715 66.0656 81.7875 63.9379 82.858 61.8089C83.5377 60.4629 84.218 59.1172 84.899 57.7718C85.2219 57.1333 85.5449 56.4948 85.8776 55.8369C88.7124 50.2886 88.7124 50.2886 91.0438 50.1387Z" fill="#EA4335"/>
</svg>
