<svg width="249" height="248" viewBox="0 0 249 248" fill="none" xmlns="http://www.w3.org/2000/svg">
<path d="M99.0381 0.134507C100.747 0.120096 100.747 0.120096 102.491 0.105393C103.713 0.101144 104.935 0.0968937 106.194 0.092515C108.111 0.0839649 108.111 0.0839649 110.067 0.0752421C112.776 0.0647598 115.485 0.0589017 118.194 0.0554056C120.934 0.0510534 123.673 0.0372855 126.412 0.01439C159.323 -0.255181 192.129 3.0837 218.151 25.2956C218.813 25.8577 219.476 26.4197 220.158 26.9988C241.287 46.5165 246.693 79.1157 248.151 106.296C248.305 111.609 248.346 116.918 248.338 122.233C248.338 123.305 248.338 123.305 248.337 124.399C248.315 137.107 247.768 149.679 246.151 162.296C246.059 163.024 245.968 163.753 245.874 164.504C243.624 181.357 237.276 197.029 228.151 211.296C227.706 212.038 227.261 212.781 226.803 213.546C216.237 229.572 195.645 237.795 177.963 242.733C176.701 243.086 176.701 243.086 175.414 243.445C159.589 247.524 143.729 247.641 127.489 247.611C123.856 247.608 120.223 247.632 116.59 247.657C84.0536 247.746 51.2695 242.286 26.8537 219.116C1.32989 192.108 -0.254191 153.003 0.0255923 118.046C0.0356569 115.824 0.0447765 113.603 0.0529361 111.382C0.0746402 106.019 0.607815 100.019 0.650574 94.657C1.33057 94.657 -0.0094263 94.657 0.650574 94.657C0.980574 93.667 0.810578 92.677 1.15058 91.657C3.15058 91.657 0.470592 92.2956 1.15059 92.2956C1.24856 91.3868 1.34653 90.4781 1.44747 89.5417C4.51528 63.7563 13.7716 38.414 34.1506 21.2956C50.0288 9.56314 68.0252 4.79386 87.1506 1.29564C88.5315 1.03885 88.5315 1.03885 89.9403 0.776872C93.0246 0.314521 95.9222 0.155883 99.0381 0.134507ZM116.776 60.4831C105.136 66.5239 92.7812 69.1858 80.0114 71.6843C79.0081 71.8809 78.0047 72.0775 76.9709 72.28C76.0662 72.4524 75.1614 72.6248 74.2292 72.8025C72.173 73.0983 72.173 73.0983 71.1506 74.2956C71.0364 75.8569 70.991 77.4234 70.9736 78.9888C70.9608 79.9917 70.9479 80.9946 70.9347 82.0279C70.9273 83.1256 70.9199 84.2233 70.9123 85.3542C70.9043 86.4865 70.8962 87.6188 70.8879 88.7854C70.874 91.199 70.8633 93.6127 70.8554 96.0264C70.8385 99.6588 70.7946 103.29 70.7502 106.923C70.5858 131.277 73.7092 150.995 91.1506 169.296C97.5421 175.169 104.734 179.828 112.151 184.296C112.97 184.806 113.79 185.317 114.635 185.843C118.901 188.391 122.045 190.203 127.151 189.296C131.609 187.222 135.831 184.791 140.026 182.233C140.915 181.706 140.915 181.706 141.822 181.169C143.301 180.268 144.731 179.288 146.151 178.296C146.151 177.636 147.151 176.976 147.151 176.296C147.687 176.048 147.223 175.801 147.776 175.546C153.699 172.428 157.705 168.923 161.713 163.671C162.193 163.047 162.672 162.423 163.166 161.78C173.635 147.876 177.3 132.065 177.319 114.878C177.322 113.783 177.325 112.689 177.329 111.562C177.334 109.256 177.336 106.951 177.336 104.645C177.338 101.11 177.356 97.5751 177.375 94.0398C177.378 91.7982 177.38 89.5567 177.381 87.3152C177.392 85.7261 177.392 85.7261 177.403 84.1049C177.398 82.6328 177.398 82.6328 177.393 81.1308C177.395 80.2674 177.396 79.4039 177.398 78.5142C177.29 76.008 177.29 76.008 175.151 73.2956C172.997 72.5011 172.997 72.5011 170.451 72.0847C169.496 71.8946 168.542 71.7044 167.558 71.5085C166.537 71.3145 165.515 71.1205 164.463 70.9206C151.857 68.3519 140.059 65.056 128.518 59.2136C123.935 57.4366 120.944 58.1065 116.776 60.4831Z" fill="#EA4335"/>
<path d="M155.922 92.2656C158.255 93.0901 159.489 94.0249 161.25 95.75C161.771 96.2399 162.292 96.7297 162.828 97.2344C164.452 99.6814 164.34 101.098 164 104C162.419 106.189 162.419 106.189 160.176 108.407C159.342 109.245 158.507 110.082 157.648 110.944C156.279 112.279 156.279 112.279 154.883 113.641C153.955 114.563 153.028 115.486 152.072 116.437C149.608 118.888 147.129 121.322 144.647 123.755C142.621 125.745 140.607 127.746 138.593 129.749C134.434 133.881 130.268 138.005 126.083 142.11C125.341 142.839 124.599 143.568 123.835 144.319C121.286 146.654 120.199 146.978 116.688 147.375C111.989 146.897 111.041 145.508 108 142C107.051 141.237 106.103 140.474 105.125 139.688C102.065 137.185 99.617 134.332 97.0781 131.313C93.6847 127.536 89.8985 124.142 86.1602 120.711C84 118 84 118 83.4844 114.879C84.2199 110.772 85.9363 109.542 89.1094 107.059C91 106 91 106 93.9375 106.125C94.6181 106.414 95.2987 106.703 96 107C96.33 107.99 99.16 109.924 99.5 110.944C100.825 111.627 99.6599 111.347 101 112C102.641 113.699 102.641 113.699 104.25 115.688C107.813 119.915 111.755 123.472 116 127C120.846 125.553 123.805 122.6 127.254 119.074C127.837 118.49 128.419 117.905 129.02 117.303C130.248 116.068 131.472 114.83 132.693 113.588C134.553 111.697 136.423 109.818 138.295 107.939C139.49 106.735 140.685 105.53 141.879 104.324C142.433 103.766 142.987 103.207 143.558 102.632C145.932 100.215 148.142 97.8214 150.258 95.1673C152.924 91.8513 152.924 91.8513 155.922 92.2656Z" fill="#EA4335"/>
</svg>
